<mxfile host="app.diagrams.net" modified="2024-04-22T07:19:16.886Z" agent="Mozilla/5.0 (Macintosh; Intel Mac OS X 10_15_7) AppleWebKit/537.36 (KHTML, like Gecko) Chrome/121.0.0.0 Safari/537.36" version="24.2.7" etag="S0pZUaXARFUZWzYeI8KE" type="github">
  <diagram name="Page-1" id="5Un4fdIXJoDYMkFlnWOC">
    <mxGraphModel>
      <root>
        <mxCell id="0" />
        <mxCell id="1" parent="0" />
      </root>
    </mxGraphModel>
  </diagram>
</mxfile>
